<?xml version="1.0"?><svg viewBox="0 0 878.63 557.347" xmlns="http://www.w3.org/2000/svg" xmlns:xlink="http://www.w3.org/1999/xlink"><style>:root>svg{display:none}:root>svg:target{display:block}</style><svg viewBox="0 0 851.034 557.347" id="" xmlns="http://www.w3.org/2000/svg"><g class="clayer"><path d="M785.2 269.13H95.11c-9.25 0-16.78-7.53-16.78-16.78V16.78C78.33 7.53 85.86 0 95.11 0H785.2c9.25 0 16.78 7.53 16.78 16.78v235.57c0 9.25-7.53 16.78-16.78 16.78zM95.11 2c-8.15 0-14.78 6.63-14.78 14.78v235.57c0 8.15 6.63 14.78 14.78 14.78H785.2c8.15 0 14.78-6.63 14.78-14.78V16.78C799.98 8.63 793.35 2 785.2 2H95.11z" fill="#3f3d56"/><path fill="#e6e6e6" d="M0 550.56h851.03v1.68H0zM0 464.56h851.03v1.68H0z"/><path d="M387.84 277.79c.61 7.68 5.07 13.59 9.96 13.2 4.88-.39 8.35-6.93 7.74-14.61-.21-3.07-1.14-6.05-2.73-8.69l-3-32.51-15.23 1.74 4.58 31.86a19.286 19.286 0 0 0-1.32 9.01z" fill="#ffb6b6"/><path d="M369.65 126.13s14.23-7.53 21.45 3.73c7.22 11.26 12.2 133.02 12.2 133.02l-20 2.13-3.8-85.8-9.85-53.08z" fill="#e6e6e6"/><path fill="#ffb6b6" d="M340.114 458.204H351.7l5.512-44.695h-17.101l.002 44.695z"/><path d="M379.81 457.94c.36.61.55 2.57.55 3.28a3.93 3.93 0 0 1-3.93 3.93h-35.88c-1.48 0-2.69-1.2-2.69-2.68v-1.5s-1.77-4.49 1.88-10.02c0 0 4.55 4.33 11.33-2.46l2.01-3.62 14.48 10.59 8.04.99c1.75.22 3.31-.03 4.21 1.49z" fill="#2f2e41"/><path fill="#ffb6b6" d="m407.168 456.286 11.227-2.87-5.721-44.667-16.57 4.234 11.064 43.303z"/><path d="M445.57 446.21c.5.49 1.17 2.35 1.34 3.03.54 2.11-.73 4.25-2.83 4.79l-34.77 8.88c-1.44.36-2.9-.5-3.27-1.94l-.37-1.44s-2.83-3.92-.66-10.18c0 0 5.48 3.07 10.37-5.18l1.05-4.01 16.66 6.68 8.02-1.03c1.76-.23 3.21-.86 4.46.4z" fill="#2f2e41"/><path fill="#ffb6b6" d="m330.527 116.525-.549-3.987 6.53-15.948 17.941-1.993 3.874 22.831-27.796-.903z"/><path opacity=".1" d="m330.527 116.525-.549-3.987 6.53-15.948 17.941-1.993 3.874 22.831-27.796-.903z"/><path fill="#2f2e41" d="m309.596 229.158-7.974 21.928 5.98 11.961 29.903 173.434h19.88l-3.932-153.499 45.85 153.5h19.676L403.157 332.82l-11.828-95.688-7.174-4.432-34.69-19.49-39.87 15.948z"/><path fill="#e6e6e6" d="m360.43 244.109-11.961 1.993-15.948-37.876h35.883l-7.974 35.883z"/><path fill="#2f2e41" d="m384.352 234.141-23.922 9.968-7.974-17.942-3.987 19.935-41.864-13.476 5.98-24.4-5.98-79.74 21.112-14.074 2.81-1.874 25.916 1.994 2.272 1.236 15.67 8.731 3.986 65.786 5.98 43.856z"/><path fill="#e6e6e6" d="m358.715 115.768-11.243 47.604-19.755-48.96 2.81-1.874 25.916 1.994 2.272 1.236z"/><path fill="#2f2e41" d="m339.498 112.538-3.987 6.867 3.987 2.289-1.993 41.802 7.974 10.84 7.974-16.021-5.98-36.621 1.993-9.156h-9.968z"/><circle cx="345.48" cy="89.61" fill="#ffb6b6" r="18.94"/><path d="m333.38 91.27 4.09 1.79 1.78-10.71s7.15-3.58 12.5-1.79 14.29 0 14.29 0 0-17.86-12.5-17.86-25 1.79-25 7.14-5.36 10.72-5.36 10.72-7.14 10.71 0 17.86c7.14 7.14 10.72 7.14 10.72 7.14l-.52-14.29z" fill="#2f2e41"/><path d="M296.63 277.23c-.21 7.7 3.6 14.05 8.5 14.18s9.04-6 9.25-13.7c.12-3.08-.49-6.14-1.79-8.93l.46-32.65-15.32.11 1.17 32.17a19.272 19.272 0 0 0-2.27 8.82z" fill="#ffb6b6"/><path d="M315.59 124.46s-12.96-3.99-18.94 7.98C290.67 144.4 298.64 266 298.64 266h20.12l-5.34-85.72 2.17-55.82z" fill="#e6e6e6"/><path d="m812.66 351.01-48.32-14.79a8.816 8.816 0 0 0-3.31-.36l-244.9 20.85c-3.49.29-4.37 5-1.22 6.54l7.85 3.82h-.21v182.95h7.39V370.57l24.58 11.98c1.88.91 3.98 1.29 6.07 1.08l2.61-.27v166.66h7.39v-167.4l189.42-19.14v186.54h7.4V362.74l31.41-3.18v190.46h7.39v-191.2l5.73-.58c4.03-.41 4.58-6.05.72-7.23z" fill="#3f3d56"/><path d="M587.23 355.98c4.62 0 72.99-8.31 72.99-8.31l10.17 13.86-71.15 13.86-12.01-19.41z" fill="#fff"/><path fill="#a0616a" d="m662.27 542.917-11.88-.022-5.572-45.83 17.532.03-.08 45.822z"/><path d="M621.57 542.58c-.37.62-.57 2.63-.57 3.35a4.025 4.025 0 0 0 4.02 4.04l36.79.07c1.52 0 2.76-1.23 2.76-2.75v-1.53s1.83-4.6-1.91-10.28c0 0-4.66 4.43-11.61-2.54l-2.05-3.72-14.87 10.84-8.23 1c-1.8.22-3.4-.04-4.33 1.52z" fill="#2f2e41"/><path fill="#a0616a" d="m726.027 521.605-9.372 7.069-31.73-32.787 13.834-10.434 27.268 36.152z"/><path d="M693.76 545.62c.08.71 1.12 2.41 1.55 2.98a3.975 3.975 0 0 0 5.58.78l29.02-21.89c1.2-.91 1.44-2.61.54-3.81l-.91-1.21s-1.31-4.71-7.64-6.96c0 0-1.03 6.28-10.66 4.93l-3.83-1.71-5.26 17.41-5.89 5.7c-1.29 1.24-2.7 1.99-2.5 3.77v.01z" fill="#2f2e41"/><path d="M701.2 284.74c0 10.95-8.88 19.84-19.84 19.84-10.95 0-19.83-8.89-19.83-19.84s8.88-19.84 19.83-19.84 19.84 8.88 19.84 19.84z" fill="#a0616a"/><path d="M699.33 399.11s-73.03-4.14-77.16 4.13 22.34 121.83 22.34 121.83l23.63-4.95-11.53-79.67s60.95 16.14 69.22-3.16c8.26-19.29 5.88-26.47 5.88-26.47l-32.38-11.71z" fill="#2f2e41"/><path d="M718.04 385.23s-71.52 15.33-73.32 24.4 53.78 111.58 53.78 111.58l21.48-11.03-32.2-73.79s63.05-.55 65.92-21.34c2.87-20.79-1.33-27.09-1.33-27.09l-34.33-2.73z" fill="#2f2e41"/><path d="M726.2 307.47h-34.36l-23.51 38.59s-5.51 24.93 0 27.62c5.51 2.69 5.51 31.63 5.51 31.63l57.87 5.51s8.27-86.81 5.52-95.08c-2.76-8.27-11.03-8.27-11.03-8.27z" fill="#c81e78"/><path d="m671.77 332.96-3.44 40.72-38.75-16.45-9.25-4.65a18.678 18.678 0 0 0-6.85-5.52c-6.7-3.26-13.81-2.45-15.89 1.81-2.07 4.26 1.67 10.36 8.37 13.62 2.65 1.34 5.59 2.02 8.57 1.99l27.06 15.37.03-.06.12.22 42.43 17.72 9.77-53.45-22.17-11.32z" fill="#a0616a"/><path d="M667.64 287.49s-20.67 2.76-12.4-15.16c0 0-1.26-9.71 4.88-10.36s14.41-11.68 14.41-11.68 18.95-9.65 28.77 0c9.81 9.64 38.75 66.14 38.75 66.14l-19.29 20.67s-11.6-30.49-25.09-26.96c-13.5 3.53-25.9 14.06-25.9 14.06s-13.69-6.85-7.53-12.82c6.15-5.97 3.4-23.89 3.4-23.89z" fill="#2f2e41"/><path d="M695.2 317.81s-9.65-12.4-16.54-2.76c-6.89 9.65-12.4 22.05-12.4 22.05l27.56 9.64 1.38-28.93z" fill="#c81e78"/><path d="m799.84 547.28-32.02-101.77h.08l-.13-.17h-.01l-2.28-7.25c3.48-3 5.84-7.27 6.31-12.2l-14.63-80.5c1.01-10.57-7.1-19.81-17.71-20.19l-33.03-.08c-9.39-.33-17.52 6.45-18.88 15.75l-.73 4.93-10.12 68.83c-.37 2.47-.22 4.91.36 7.2l-7.28.95-2.21.29-8.73 1.14-.03.01-1.09.14h-1.18v29.57h.07v94.5a1.114 1.114 0 0 0 2.23 0v-94.5h12.95l12.93 94.39c.08.56.55.96 1.11.96.04 0 .1 0 .14-.01.61-.08 1.04-.64.96-1.25l-12.88-94.09h62.15c6.17 0 11.89-1.96 16.55-5.32l24.64 99.54c.13.5.59.84 1.08.84.09 0 .19-.01.28-.04.59-.15.95-.75.8-1.35l-24.88-100.5c.33-.27.66-.57.97-.87l9.9-.58 32.18 102.3a1.122 1.122 0 0 0 1.4.73c.58-.19.91-.81.73-1.4zm-36.47-107.61c.08-.05.15-.1.23-.15l.24.76-.47-.61z" fill="#e6e6e6"/><path fill="#ffb6b6" d="m171.565 374.775 21.55-13.704 8.76 5.284-30.31 34.828v-26.408z"/><path d="M142.1 321.73s-14.32 3.37-7.58 22.73 28.63 59.78 35.36 57.26c6.74-2.53 7.58-27.79 7.58-27.79s-.84.84-4.21-2.52c-3.37-3.37-3.37-1.83-3.37-5.55s-2.75-6.47-2.75-6.47l-3.14-6.51s0-30.31-12.63-31.99c-12.63-1.68-9.26.84-9.26.84z" fill="#e6e6e6"/><ellipse cx="202.72" cy="359.2" fill="#ffb6b6" rx="14.31" ry="8.84" transform="rotate(-45 202.717 359.199)"/><g fill="#e6e6e6"><path d="m86.348 433.29 14.704 24.338 85.69-5.07-22.817-29.409-77.577 10.141z"/><path d="M111.95 547.12c-.5 0-.93-.37-1-.88l-25.61-187c-.07-.56.32-1.07.87-1.15.55-.08 1.07.32 1.14.87l25.61 187.01c.07.55-.31 1.06-.87 1.14-.05.01-.09.01-.14.01z"/><path d="M86.35 547.36c-.56 0-1.02-.46-1.02-1.02V359.13a1.016 1.016 0 0 1 2.03 0v187.21c0 .56-.45 1.02-1.01 1.02zM214.88 546.61c-.43 0-.83-.27-.97-.71l-60.59-192.58a1.016 1.016 0 0 1 1.94-.61l60.59 192.58c.17.54-.13 1.11-.66 1.28-.1.03-.21.04-.31.04zM196.37 546.85c-.45 0-.86-.3-.98-.76l-42.08-169.97c-.14-.55.19-1.1.73-1.24.55-.13 1.1.19 1.23.74l42.09 169.97a1.012 1.012 0 0 1-.99 1.26z"/><path d="m86.348 362.117 70.225-1.08 12.93 73.774h-82.14l-1.015-72.694z"/></g><path fill="#ffb6b6" d="m194.266 470.597-17.698 31.158 20.549 4.524 8.567-22.161-11.418-13.521z"/><path d="M182.92 495.87s-.68-5.08-4.73-3.47-15.71 7.61-15.71 7.61 30.44 49.45 36.21 47.15c5.78-2.31-1.14-16.29-1.14-16.29l1.53-24.7-16.16-10.3zM116 410.14s-6.32 29.04 13.05 39.15c19.36 10.1 85.45-14.74 85.45-14.74l-30.31 45.42 21.05 8.47s47.99-63.15 44.63-73.25c-3.37-10.11-26.1-10.95-26.1-10.95l-51.36 2.53-13.47-4.21-42.94 7.58z" fill="#2f2e41"/><path fill="#ffb6b6" d="m168.084 484.425-27.823 22.583 17.494 11.69 16.043-17.524-5.714-16.749z"/><path d="M148.32 503.84s1.21-4.98-3.14-4.95-17.4 1.37-17.4 1.37 10.35 57.13 16.57 57.09c6.22-.05 4.86-15.58 4.86-15.58l10.41-22.46-11.3-15.47zM117.18 399.63s-16.45 24.76-2.09 41.21c14.36 16.46 84.96 17.38 84.96 17.38l-44.76 31.27 16.53 15.55s67.67-41.36 68.21-51.99c.54-10.64-20.32-19.7-20.32-19.7l-48.76-16.33-11.02-8.82-42.75-8.57zM159.44 342.28s-15.99-5.89-23.57-5.89c-.73 0-1.44.08-2.16.24-4.85 1.02-9.31 5.19-11.45 7.46-.83.9-1.31 1.49-1.31 1.49s.05-.58.15-1.59c.5-5.36 2.33-22.93 5.63-34.18 1.17-4.02 2.53-7.22 4.09-8.78 3.63-3.64 5.3-8 6.08-11.25.65-2.79.65-4.75.65-4.75l-6.13-2.64-1.14-7.43c-.2.88-1.14 2.59-4.28 5.86-.27.28-.56.52-.87.72-4.53 2.84-13.77-2.11-18.75-5.22 2.08-7.2 5.83-13.78 12.65-14.86 16-2.53 16-11.79 26.1-1.69.83.84 1.68 1.64 2.52 2.41 3.23 6.18 4.41 14.47 4.83 20.23.3 4.03.23 6.83.23 6.83s4.21 25.26 10.94 30.31c6.74 5.05-4.21 22.73-4.21 22.73z" fill="#2f2e41"/><path fill="#ffb6b6" d="m128.292 301.871-11.377 16.687 25.69 6.888V301.87h-14.313z"/><path opacity=".1" d="m128.292 301.871-11.377 16.687 25.69 6.888V301.87h-14.313z"/><path d="m144.2 317.94-24.41-10.1s-32.84 14.31-30.31 42.1c2.52 27.78 26.1 75.77 26.1 75.77l47.14-20.2-5.05-53.89-13.47-33.68z" fill="#e6e6e6"/><circle cx="133.73" cy="287.78" fill="#ffb6b6" r="21.54"/><path d="M162.81 279.98c-4.21 4.21-7.58 8.42-7.58 8.42l-1.68-6.74s-.39.29-1.07.75c-2.67 1.81-9.83 6.39-15.58 7.37-2.56.44-4.84.16-6.32-1.38-3.14-3.27-4.07-4.98-4.28-5.86l-1.13 7.43-6.14 2.64s0 9.24 6.74 16c.32.33.64.73.96 1.2 3.21 4.85 5.52 16.72 6.98 26.82 1.3 8.97 1.92 16.53 1.92 16.53s-6.37-7.98-13.37-9.07c-.38-.05-.77-.1-1.16-.1-.12-.02-.26-.02-.39-.02-7.57 0-23.57 5.89-23.57 5.89s-10.95-17.68-4.21-22.73c6.74-5.05 10.95-30.31 10.95-30.31s-.28-10.81 2.5-20.5c2.08-7.2 5.83-13.78 12.65-14.86 16-2.53 16-11.79 26.1-1.69.83.84 1.68 1.64 2.52 2.41 9.41 8.66 19.03 13.94 15.16 17.8z" fill="#2f2e41"/><path fill="#3f3d56" d="M60.33 393h8v158h-8zM254.33 393h8v158h-8z"/><path fill="#c81e78" d="M163.33 325h53v53h-53z"/><path fill="#ffb6b6" d="m127.784 382.352 21.55-13.704 8.76 5.285-30.31 34.828v-26.409z"/><path d="M98.32 329.31s-14.32 3.37-7.58 22.73c6.73 19.37 28.62 59.78 35.36 57.25 6.74-2.52 7.58-27.78 7.58-27.78s-.84.84-4.21-2.53c-3.37-3.36-3.37-1.83-3.37-5.54s-2.75-6.47-2.75-6.47l-3.14-6.51s0-30.31-12.63-31.99c-12.63-1.69-9.26.84-9.26.84z" fill="#e6e6e6"/><ellipse cx="158.94" cy="366.78" fill="#ffb6b6" rx="14.31" ry="8.84" transform="rotate(-45 158.936 366.776)"/><path fill="#3f3d56" d="M36.33 387h242v18h-242z"/><rect fill="#3f3d56" height="25" rx="5.13" ry="5.13" width="46" x="483.33" y="243"/><rect fill="#c81e78" height="10.26" rx="5.13" ry="5.13" width="46" x="558.33" y="257.74"/></g></svg><svg viewBox="0 0 833.723 554" id="" xmlns="http://www.w3.org/2000/svg"><g class="elayer"><circle cx="512.4" cy="148.87" fill="#f2f2f2" r="36"/><circle cx="298.4" cy="82.87" fill="#f2f2f2" r="30"/><circle cx="200.4" cy="366.87" fill="#f2f2f2" r="30"/><path d="M169.91 412.87c8.69 10.3 18.09 84.56 28.12 93.54l470.58 1c10.03-8.98 19.43-83.24 28.12-93.54l-526.82-1z" fill="#e6e6e6"/><path d="M316.6 325.65v102.56h71.85V325.65c0-1.52-.98-2.86-2.43-3.3a3 3 0 0 0-1.03-.16h-64.92a3.455 3.455 0 0 0-3.47 3.45v.01zm28.04 35.24c.04-4.24 3.5-7.64 7.74-7.6 4.18.04 7.56 3.41 7.6 7.6v11.9c-.02 4.23-3.47 7.65-7.71 7.63a7.667 7.667 0 0 1-7.63-7.63v-11.9z" fill="#3f3d56"/><path d="M203.57 171.13v187.26c0 4.96 4.03 8.99 9 9h277.5c4.97-.01 8.99-4.04 9-9V171.13c-.01-4.97-4.04-8.99-9-8.99h-277.5c-4.97 0-8.99 4.02-9 8.99z" fill="#3f3d56"/><path d="M210.08 173.46v182.62c0 2.65 2.15 4.8 4.81 4.81h272.87c2.65-.01 4.8-2.16 4.81-4.81V173.46c0-2.66-2.15-4.82-4.81-4.82H214.89c-2.66 0-4.81 2.16-4.81 4.82z" fill="#c81e78"/><path d="M265.72 439.09c.56.7 1.42 1.11 2.32 1.11h162.34a2.998 2.998 0 0 0 2.92-3.6l-2.52-11.97c-.21-1-.91-1.81-1.86-2.17-.34-.14-.7-.2-1.06-.2H270.55c-.36 0-.72.06-1.06.2-.95.36-1.65 1.17-1.86 2.17l-2.52 11.97c-.18.88.04 1.79.61 2.49zM223.66 193.79h255.33c.56-.01 1-.47.99-1.03-.01-.55-.45-.99-.99-1H223.66a1.016 1.016 0 0 0 0 2.03z" fill="#3f3d56"/><path d="M795.94 392.2c-.02-.05-.03-.09-.05-.13-.38-1.04-.83-2.06-1.35-3.04-2.91-5.47.17-13.87-3.11-23.15-5.3-15.04-11.76-23.91-21.23-31.86-.28-.24-.56-.47-.85-.71l-.01-.01c-6.32-5.19-13.94-10.04-23.4-16.08-1.97-1.26-8.78 2.38-8.62-3.86.18-6.93.37-14.11-3.03-18.59l-.22-.29-.35-.09a149.738 149.738 0 0 0-35.42-2.73h-.01c-5.04.18-10.04.92-14.93 2.19-.36.1-.72.2-1.07.32-.27.07-.54.16-.81.25l-.22.08-.17.16c-3.29 3.29-4.05 9.19-4.41 15.34v.01c-.07 1.12-.13 2.24-.18 3.36-.28 5.98-14.71 10.81-20.21 13.52-10.33 5.1-8.77 16.98-8.89 16.98 0 0-17.37 35.66-17.58 71.77-.01 2.01-.02 4.03-.04 6.06-.12 16.82-.44 33.93-1.7 49.52-.55 6.7-1.26 13.11-2.21 19.1-4.62 29.17-25.55 4.95-35.56 24.36.33 1.91.89 3.77 1.65 5.55 1.15.68 2.33 1.34 3.5 2 5.19 2.89 10.48 5.58 15.86 8.09.3.14.6.28.9.41a236.946 236.946 0 0 0 36.57 13.39c18.14 5 36.81 7.8 55.61 8.33.08-.01.16-.02.23-.01 22.24-.62 44.34-3.8 65.84-9.49l.9-.24c1.41-.38 2.81-.76 4.21-1.16 12.38-3.53 24.51-7.88 36.3-13.02.02.44.06.87.13 1.31.01.14.03.28.06.42.02-.16.04-.32.05-.48.06-.47.11-.95.16-1.43 6.12-59.68-6.59-110.35-16.34-136.15z" fill="#ccc"/><circle cx="707.42" cy="228.4" fill="#ffb6b6" r="58.07"/><path d="M711.72 287.52a158.24 158.24 0 0 0 26.01-6.98c8.3-3.44 24.88-21.38 28.61-30.96 2.77-7.12 3.41-17.51 3.45-24.98a70.576 70.576 0 0 0-22.84-52.65 22.188 22.188 0 0 0-10.31-5.82c-.34-.07-.69-.11-1.04-.14a27.531 27.531 0 0 1-15.05-5.7c-.85-.68-1.75-1.31-2.68-1.86-4.68-2.61-9.9-4.07-15.24-4.27-8.69-.6-20.2 3.92-34.23 13.44-7.05 4.78-15.69 5.23-22.43 5.09-.76 0-1.47.4-1.86 1.07a15.163 15.163 0 0 1-9.36 6.02c-2.29.55-4.09 4.23-6.21 8.97-.48 1.08-1.04 2.34-1.47 3.12l-.33-1.28-1.03 1.7c-5.28 8.72-2.49 20.08 6.24 25.36a18.47 18.47 0 0 0 7.7 2.58c2.45.16 4.9.08 7.33-.26 1.48-.15 3.01-.31 4.51-.34 9.79.1 18.81 5.33 23.76 13.78a7.286 7.286 0 0 0 9.98 2.54c.54-.33 1.04-.72 1.48-1.17 2.59-2.97 6.47-4.48 10.38-4.06 1.75.57 3.24 1.72 4.23 3.26 1.18 1.7 2.84 3.01 4.76 3.77 6.45 1.88 9.46 15.18 9.53 26.74.06 11.15-2.43 19.71-6.07 20.82-2.8.85-3.08 1.12-3.19 1.66l-.1.49.4.36c1.69.27 3.42.16 5.07-.3z" fill="#2f2e41"/><path d="M490.74 384.55c2.52 9.23 12.05 14.67 21.28 12.15.98-.27 1.94-.63 2.86-1.07l43.18 43.88 6.68-31.28-42.03-36.88c-4.69-8.39-15.3-11.4-23.7-6.7a17.39 17.39 0 0 0-8.27 19.9z" fill="#ffb6b6"/><path d="m716.3 338.74-.27-.16-31.49-10.83a29.811 29.811 0 0 0-24.41 2.27c-1.71.97-3.32 2.1-4.79 3.39h-.01a29.745 29.745 0 0 0-9.68 16.41l-16.54 78.51-33.25-17.92-13.55-3.23-12.34-12.38-30.8-12.54-1.71 2.04-15.5 18.52-1.21 1.46 34.12 49.37 15.3 1.66 4.28 7.63.31.14 12.54 5.65 53.48 24.09 25.9-19.82 4.05-3.11c33.51-31.04 49.17-56.01 55.71-75.03 3.46-10.05 4.37-18.42 4.03-25.17-1.07-20.86-13.64-30.56-14.17-30.95z" fill="#ccc"/><path d="M745.9 357.87h-15c-43.35 0-78.5 35.15-78.5 78.5-13.99 17.3-13.13 39.03 0 64.42l-42.99-17.92c-6.13-2.54-13.15.36-15.68 6.49-2.53 6.1.35 13.1 6.44 15.66l52.23 21.77v4.06c0 12.71 10.31 23.02 23.02 23.02h125.96c12.71 0 23.02-10.31 23.02-23.02 9.34-34.26 15.18-67.48 0-94.48 0-43.35-35.14-78.5-78.5-78.5z" fill="#3f3d56"/><path d="M78.67 407.59c-.97 0-1.94.1-2.9.27L59.87 307.2l15.93-96.91c2.19-13.3-6.82-25.86-20.12-28.05-12.01-1.97-23.63 5.2-27.26 16.81a192.54 192.54 0 0 0-8.76 59.05l.56 66.09 42.39 101.5c1.06 8.88 9.12 15.21 17.99 14.15 8.87-1.06 15.2-9.12 14.14-17.99-.97-8.14-7.87-14.26-16.07-14.26z" fill="#ffb8b8"/><path d="M49.55 175.81c-21.19.04-38.36 17.2-38.39 38.39l7.8 78.8.7 7.06.36.02 27.39 1.36h.01l13.29.66 2.28.11L65.6 293l22.34-78.8c-.02-21.19-17.2-38.37-38.39-38.39z" fill="#e6e6e6"/><path d="m50.73 554-12.6-38.66s-23.1-23.49 6.53-85.85c.65-1.38 1.33-2.77 2.04-4.19 1.24-2.49 2.57-5.04 3.98-7.66 2.14-3.8 4.31-7.73 6.76-11.79l2.24.4 2.12.37 7.25 1.28h.01l104.99 18.5s-1.93 8.62-2.97 17.87c-.83 7.59-1.1 15.27.86 18.52 4.24 7.26-1.49 26.88-1.49 26.88s.32 1.9.86 5.26v.01c.53 3.27 1.27 7.91 2.11 13.53.04.38.09.76.15 1.14 1.33 9.1 2.92 20.59 4.34 32.94.44 3.75.86 7.58 1.26 11.45H50.73z" fill="#2f2e41"/><path d="M20.8 196.19c2.64-7.27 8.8-12.69 16.34-14.39a51.09 51.09 0 0 1 16.95-1.86c16.72.66 12.5-36.8 29.06-34.37 0 0 15.58-5.56 27.77 4.63 11.08 9.26 18.72 34.44 21.56 33 .6-.3 2.05-.26 4.08.01 23.73 3.14 40.8 24.43 39.39 48.32l-1.21 20.42s8.52 12.82-3.84 35.46L155.33 357s38.96 77.17 21 93-88.39-8.85-88.39-8.85-39.49-12.21-47.82-17.5c-17.59-11.18 4.9-36.66 18.8-35.46a8.09 8.09 0 0 0-2.55-8.1c-3.84-2.46.47-8.01.79-8.52-.37.37-3.29 3.42-5.51-3.01s4.63-14.54 4.63-14.54l-19.35-41.66-15.23-32.92-1.85-3.79 3.18-20.48-.3-.62a65.588 65.588 0 0 1-4.23-45.3c1.47-5.56 2.53-10.63 2.3-13.06z" fill="#e6e6e6"/><path d="M179.17 554h-6.68c1.85-3.97 3.68-7.82 5.42-11.45.44 3.75.86 7.58 1.26 11.45z" fill="#2f2e41"/><path d="M310.29 321.05c-.59.78-1.11 1.6-1.56 2.46l-89.33-49.06-66.87-71.92c-9.18-9.88-24.62-10.44-34.5-1.26-8.9 8.28-10.35 21.86-3.4 31.84h.01a192.26 192.26 0 0 0 41.33 43.08l52.59 40.02 106.21 28.63c7.67 4.59 17.61 2.1 22.2-5.57 4.59-7.66 2.1-17.6-5.57-22.19-7.03-4.22-16.09-2.51-21.11 3.97z" fill="#ffb8b8"/><path d="m189.37 301.61 26.52-30.93 1.48-1.73-54.32-73.61c-2.35-1.83-4.9-3.37-7.62-4.6-19.3-8.77-42.06-.24-50.83 19.06-7.36 16.2-2.62 35.34 11.45 46.23l15.85 9.94 57.24 35.91.23-.27z" fill="#e6e6e6"/><path d="M141.78 111.91c-13.54 24.76-44.59 33.85-69.34 20.31-24.76-13.54-33.86-44.58-20.32-69.34 13.54-24.76 44.59-33.85 69.35-20.31a51.102 51.102 0 0 1 22.91 25.81c.23.59.44 1.17.65 1.78a51.016 51.016 0 0 1-3.25 41.75z" fill="#ffb6b6"/><path d="M149.12 70.16c-2.19-6.15-1.24-2.95-3.46-9.08 1.45 5.43-.84 8.47-.63 9.08H84.19V34.79c17.83-7.06 35.25-13.07 45.78 0 19.53 0 35.36 15.84 35.36 35.37h-16.21z" fill="#2f2e41"/><path d="M127.56 168.47c-.05-.66-.12-1.34-.21-1.99-.82-4.81-2.14-9.51-3.96-14.04-1.75-4.93-3.53-9.89-5.3-14.83a42.53 42.53 0 0 1-1.99 26.95c-10.27-8-3.79-26.29-17.22-26.29-32.28 0-65.49-26.17-65.49-58.47 0-32.28 13.85-56.42 46.13-56.42 32.3 0 58.49 14.78 59.13 47.06-39.77 9.36-3.58 94.75-11.09 98.03z" fill="#2f2e41"/><circle cx="37.42" cy="37.42" fill="#2f2e41" r="37.42"/><ellipse cx="234.72" cy="180.3" fill="#3f3d56" rx="4.52" ry="4.62"/><ellipse cx="250.33" cy="180.3" fill="#3f3d56" rx="4.52" ry="4.62"/><ellipse cx="265.94" cy="180.3" fill="#3f3d56" rx="4.52" ry="4.62"/><path d="M283.74 183.95c-.14 0-.28-.05-.39-.16l-3.04-3.11a.525.525 0 0 1 0-.75l3.04-3.12c.21-.21.55-.21.76 0 .21.2.21.54.01.75l-2.69 2.74 2.69 2.75a.53.53 0 0 1-.38.9zM288.86 183.95a.525.525 0 0 1-.38-.9l2.68-2.75-2.68-2.74a.525.525 0 0 1 0-.75c.22-.21.55-.21.76 0l3.05 3.12c.2.21.2.54 0 .75l-3.05 3.11c-.1.11-.24.16-.38.16zM458.31 176.22h-5.67c-.64 0-1.17.52-1.17 1.17v5.67c0 .65.53 1.17 1.17 1.17h5.67c.65 0 1.18-.52 1.18-1.17v-5.67c0-.65-.53-1.17-1.18-1.17zM444.42 176.22h-5.67c-.64 0-1.17.52-1.17 1.17v5.67c0 .65.53 1.17 1.17 1.17h5.67c.65 0 1.18-.52 1.18-1.17v-5.67c0-.65-.53-1.17-1.18-1.17zM471.4 176.49h-5.67c-.64 0-1.17.52-1.17 1.17v5.67c0 .65.53 1.17 1.17 1.17h5.67c.65 0 1.18-.52 1.18-1.17v-5.67c0-.65-.53-1.17-1.18-1.17zM377.22 178.65h-49.93c-.79 0-1.42.64-1.42 1.42s.63 1.43 1.42 1.43h49.93c.79 0 1.43-.64 1.43-1.43s-.64-1.42-1.43-1.42z" fill="#3f3d56"/></g></svg><svg viewBox="0 0 878.63 496.388" id="" xmlns="http://www.w3.org/2000/svg"><g class="glayer"><g data-name="Group 69"><path d="M134.04 426.09C114.52 440.63 109 466.23 109 466.23s26.1 2 45.61-12.54 25.04-40.13 25.04-40.13-26.1-2.01-45.61 12.53z" data-name="Path 1089" fill="#f1f1f1"/><path d="M142.16 432.92c-9.37 22.46-32.86 34.03-32.86 34.03s-8.28-24.84 1.1-47.29 32.86-34.03 32.86-34.03 8.28 24.84-1.1 47.29z" data-name="Path 1090" fill="#f1f1f1"/><path d="M703.51 368a194.65 194.65 0 0 1-1.64-42.2l1.64-23.3c-9 17.91-6.97 41.48 0 65.5z" data-name="Path 1091" fill="#cacaca"/><path d="M411.153 173.867s23.45 77.38 16.41 86.75 75.03-51.58 75.03-51.58-30.48-21.1-18.75-51.58l-72.69 16.41z" data-name="Path 274" fill="#ffb9b9"/><path d="M710.53 371.9a143.09 143.09 0 0 1-.79-25.11l.79-13.88c-4.33 10.66-3.36 24.69 0 38.99z" data-name="Path 1092" fill="#cacaca"/><path d="M741.72 389.06v7.8a2.35 2.35 0 0 1-2.34 2.34h-3.9a.78.78 0 0 0-.78.78v63.94a2.35 2.35 0 0 1-2.34 2.34H684.8a2.34 2.34 0 0 1-2.34-2.34v-63.94a.78.78 0 0 0-.78-.78H677a2.34 2.34 0 0 1-2.34-2.34v-7.8a2.34 2.34 0 0 1 2.34-2.34h62.38a2.35 2.35 0 0 1 2.34 2.34z" data-name="Path 1093" fill="#f2f2f2"/><path data-name="Rectangle 346" fill="#e6e6e6" d="M682.53 400.835h52.25v2.34h-52.25z"/><path d="M734.7 435.26c-17.48 7.23-35.15 7.31-53.02 0v-16.48a83.27 83.27 0 0 1 53.02 0v16.48z" data-name="Path 1094" fill="#e6e6e6"/><circle cx="-450.02" cy="-214.45" data-name="Ellipse 276" fill="#feb8b8" r="70.67" transform="translate(891.872 327.045)"/><path d="M593.84 294.32c-2.43-14.62-4.94-29.52-11.73-42.69-4.47-8.62-11.55-16.85-21.11-18.55a20.42 20.42 0 0 1-5.5-1.27c-2.8-1.35-40.43-22.83-46.41-26.57-5.13-3.21-13.24-9.16-17.32-9.16-4.11-.09-19.88 3.58-81.42-1.23 0 0-16.9 6.66-29.98 14.74-.2-.13-63.87 34.06-66.26 33.97-4.53-.19-8.74 2.71-11.34 6.37s-3.82 8.17-5.09 12.54c13.91 30.97 26.63 61.98 40.54 92.95a7.93 7.93 0 0 1 1 3.82 9.31 9.31 0 0 1-1.73 3.81c-6.82 10.96-6.6 24.74-5.85 37.61s1.66 26.48-4.09 38.02c-1.57 3.17-3.6 6.07-5.09 9.24-3.49 7.18-4.75 30.13-2.71 37.84l255.12 7.31c-5.48-15.08 18.97-198.75 18.97-198.75z" data-name="Path 1095" fill="#c81e78"/><path d="M275.63 356.79a45.05 45.05 0 0 0-.15 11.11l3.65 52.51c.35 4.95.68 9.89 1.15 14.83.88 9.58 2.19 19.08 3.81 28.57a5.09 5.09 0 0 0 5.22 4.95c16.1 3.41 32.73 3.27 49.15 2.34 25.07-1.4 89.2-4.04 93.12-9.13s1.63-13.32-3.48-17.44-89.73-14.15-89.73-14.15c.82-6.55 3.32-12.72 5.68-18.94 4.25-11.04 8.22-22.44 8.3-34.26s-4.37-24.25-14.06-31.02c-7.96-5.56-18.22-6.59-27.93-6.36-7.06.2-19.26-1.49-25.71 1.27-5.11 2.25-8.07 10.72-9.02 15.72z" data-name="Path 1421" fill="#fbbebe"/><path d="M296.95 263.41a13.17 13.17 0 0 0-2.83 4.52 213.59 213.59 0 0 0-17.94 73.32 7.33 7.33 0 0 1-.82 3.55 15.54 15.54 0 0 1-1.87 2.02 7.02 7.02 0 0 0 .83 9.9q.18.15.36.28c2.1-3.95 7.13-5.24 11.59-5.59 21.39-1.69 42.28 8.26 63.74 7.51-1.52-5.23-3.69-10.25-4.93-15.55-5.46-23.5 8.16-49.08-.19-71.72-1.67-4.53-4.45-8.98-8.84-10.97a23.55 23.55 0 0 0-5.66-1.5c-5.43-.98-16.22-5.17-21.46-3.49-1.93.63-2.7 2.45-4.3 3.55-2.43 1.55-5.66 2.12-7.68 4.17z" data-name="Path 1430" fill="#c81e78"/><path d="M593.99 341.07c-6.45-2.76-18.65-1.07-25.71-1.27-9.71-.23-19.97.8-27.93 6.36-9.69 6.77-14.14 19.2-14.06 31.02s4.04 23.22 8.3 34.26c2.36 6.22 4.86 12.39 5.68 18.94 0 0-84.63 10.04-89.73 14.15s-7.4 12.35-3.48 17.44 126.17 10.2 142.27 6.8a5.09 5.09 0 0 0 5.22-4.95c1.62-9.49 2.93-19 3.81-28.58.47-4.94.8-9.88 1.15-14.83l3.65-52.51a45.05 45.05 0 0 0-.15-11.11c-.95-5-3.91-13.47-9.02-15.72z" data-name="Path 1421" fill="#fbbebe"/><path d="M574.01 259.24c-1.6-1.1-2.37-2.92-4.3-3.55-5.24-1.68-16.03 2.51-21.46 3.49a23.55 23.55 0 0 0-5.66 1.5c-4.39 1.99-7.17 6.44-8.84 10.97-8.35 22.64 5.27 48.22-.19 71.72-1.24 5.3-3.41 10.32-4.93 15.55 21.46.75 42.35-9.2 63.74-7.51 4.46.35 9.49 1.64 11.59 5.59q.18-.13.36-.28a7.02 7.02 0 0 0 .84-9.9 15.53 15.53 0 0 1-1.87-2.02 7.33 7.33 0 0 1-.83-3.55 213.59 213.59 0 0 0-17.94-73.32 13.17 13.17 0 0 0-2.82-4.52c-2.03-2.05-5.26-2.62-7.69-4.17z" data-name="Path 1430" fill="#c81e78"/><circle cx="-501.61" cy="-266.04" data-name="Ellipse 188" fill="#fbbebe" r="19.07" transform="translate(922.536 718.237)"/><circle cx="-501.61" cy="-266.04" data-name="Ellipse 189" fill="#fbbebe" r="19.07" transform="translate(964.768 718.237)"/><path d="M580.89 495.18H318.86a11.55 11.55 0 0 1-11.54-11.54V324.67a11.55 11.55 0 0 1 11.54-11.54h262.03a11.55 11.55 0 0 1 11.54 11.54v158.97a11.55 11.55 0 0 1-11.54 11.54z" data-name="Path 1096" fill="#090814"/><circle cx="-513.05" cy="-277.48" data-name="Ellipse 263" fill="#fff" r="7.64" transform="translate(962.287 681.632)"/><path d="M878.635 463.11H.005v27h51.97v6.28h774.71v-6.28h51.95v-27z" data-name="Path 1097" fill="#f1f1f1"/><path d="m391.026 40.95-11.52-4.61s24.11-26.53 57.63-24.22l-9.43-10.39s23.05-9.23 44.01 15c11.02 12.74 23.76 27.71 31.72 44.57h12.34l-5.15 11.34 18.03 11.35-18.5-2.03a62.78 62.78 0 0 1-1.76 29.38l.51 8.97s-21.46-33.21-21.46-37.82v11.54s-11.53-10.4-11.53-17.32l-6.29 8.08-3.14-12.69-38.77 12.69 6.28-10.39-24.1 3.46 9.43-12.69s-27.25 15-28.29 27.69-14.67 28.84-14.67 28.84l-6.29-11.54s-9.43-51.91 20.95-69.21z" data-name="Path 983" fill="#090814"/><path d="M376.88 138.94c-11.36 0-20.56-9.95-20.56-22.23v-11.12c0-12.28 9.2-22.23 20.56-22.23v55.58z" data-name="Path 1098" fill="#c81e78"/><path d="M508.1 83.37c11.35 0 20.56 9.95 20.56 22.22v11.12c0 12.28-9.2 22.23-20.56 22.23V83.37z" data-name="Path 1099" fill="#c81e78"/><path d="M518.87 107.34h-3.26c0-44.73-33.65-81.12-75.02-81.12s-75.03 36.39-75.03 81.12h-3.26c0-46.67 35.12-84.65 78.29-84.65s78.28 37.98 78.28 84.65z" data-name="Path 1100" fill="#c81e78"/></g></g></svg><svg viewBox="0 0 50 50" id="" xmlns="http://www.w3.org/2000/svg"><path style="stroke:none;fill-rule:nonzero;fill:#000;fill-opacity:1" d="M34.566 15.688h.036c.324 0 .628.101.875.277l-.004-.004a.96.96 0 0 1 .332.629v.004a3.994 3.994 0 0 1 .039.937v-.015c-.352 3.703-1.875 12.68-2.653 16.82-.328 1.758-.972 2.344-1.597 2.398-1.36.13-2.39-.894-3.703-1.757-2.063-1.352-3.227-2.192-5.223-3.508-2.313-1.524-.813-2.36.504-3.727.344-.36 6.328-5.805 6.445-6.297a.475.475 0 0 0-.11-.414.505.505 0 0 0-.288-.086.565.565 0 0 0-.2.04h.004c-.207.046-3.496 2.218-9.867 6.519a4.388 4.388 0 0 1-2.531.937h-.008a16.493 16.493 0 0 1-3.754-.894l.117.035c-1.464-.477-2.628-.73-2.53-1.539.054-.422.632-.852 1.741-1.293 6.82-2.969 11.368-4.93 13.645-5.875 2.512-1.332 5.422-2.43 8.484-3.14l.242-.047ZM24.891 1.601c-12.973.03-23.477 10.554-23.477 23.53 0 12.997 10.535 23.532 23.531 23.532 12.996 0 23.532-10.535 23.532-23.531 0-12.977-10.504-23.5-23.473-23.531h-.114Zm0 0"/></svg><svg viewBox="0 0 50 50" id="" xmlns="http://www.w3.org/2000/svg"><path style="stroke:none;fill-rule:nonzero;fill:#000;fill-opacity:1" d="M25 1C11.746 1 1 11.746 1 25s10.746 24 24 24 24-10.746 24-24S38.254 1 25 1Zm9.23 27.078s2.122 2.094 2.645 3.067c.016.02.023.039.027.05.211.356.262.633.157.844-.172.344-.774.512-.98.527h-3.75c-.259 0-.806-.066-1.466-.52-.504-.355-1.004-.937-1.492-1.507-.73-.844-1.36-1.574-1.992-1.574-.719.191-1.332.879-1.332 2.703 0 .57-.453.898-.77.898H23.56c-.582 0-3.633-.207-6.332-3.054-3.305-3.489-6.278-10.48-6.305-10.547-.188-.453.2-.695.625-.695h3.785c.504 0 .672.308.785.582.137.316.63 1.578 1.442 3 1.32 2.312 2.125 3.253 2.773 3.253 1.191-.558 1.035-3.574.996-4.199 0-.117 0-1.347-.433-1.937-.31-.426-.836-.59-1.157-.649.13-.18.301-.324.496-.422.582-.289 1.625-.332 2.664-.332h.579c1.125.012 1.414.086 1.82.188.824.2.844.73.77 2.555-.02.515-.044 1.101-.044 1.793 0 .148-.007.308-.007.476-.028.93-.055 1.98.597 2.414.516.082 1.2.082 3.055-3.101a24.328 24.328 0 0 0 1.488-3.184c.035-.066.145-.266.278-.344l4.761-.07c.485 0 .817.07.88.258.109.3-.02 1.207-2.052 3.96l-.91 1.196c-1.84 2.414-1.84 2.54.117 4.371Zm0 0"/></svg><svg viewBox="0 0 30 30" id="g" xmlns="http://www.w3.org/2000/svg"><path style="fill:none;stroke-width:2;stroke-linecap:round;stroke-linejoin:round;stroke:#000;stroke-opacity:1;stroke-miterlimit:4" d="M3 5.5C3 14.06 9.94 21 18.5 21c.387 0 .769-.016 1.147-.04.437-.035.653-.05.853-.163.163-.094.319-.263.4-.434.1-.204.1-.444.1-.925v-2.816c0-.406 0-.606-.066-.781a1.03 1.03 0 0 0-.278-.394c-.14-.122-.331-.19-.71-.331l-3.205-1.166c-.441-.16-.663-.24-.872-.225a.978.978 0 0 0-.513.181c-.172.122-.293.322-.534.725L14 16a12.1 12.1 0 0 1-6-6l1.369-.822c.403-.24.603-.362.725-.534a.978.978 0 0 0 .181-.513c.016-.21-.066-.431-.225-.872L8.884 4.053c-.14-.378-.209-.569-.33-.71a1.03 1.03 0 0 0-.395-.277C7.984 3 7.784 3 7.38 3H4.562c-.482 0-.722 0-.925.1-.172.081-.341.237-.435.4-.112.2-.128.416-.162.853C3.016 4.731 3 5.113 3 5.5Zm0 0" transform="scale(1.25)"/></svg><svg viewBox="0 0 60 60" id="pe" xmlns="http://www.w3.org/2000/svg"><path style="stroke:none;fill-rule:nonzero;fill:#000;fill-opacity:1" d="M54.375 50.625H5.625A5.631 5.631 0 0 1 0 45V15a5.631 5.631 0 0 1 5.625-5.625h48.75A5.631 5.631 0 0 1 60 15v30a5.631 5.631 0 0 1-5.625 5.625Zm-48.75-3.75h48.75c1.031 0 1.875-.84 1.875-1.875V15.594L31.219 37.047A1.852 1.852 0 0 1 30 37.5c-.434 0-.867-.148-1.219-.453L3.75 15.594V45c0 1.035.844 1.875 1.875 1.875Zm47.746-33.75H6.63L30 33.156Zm0 0"/></svg><svg viewBox="0 0 60 60" id="svg" xmlns="http://www.w3.org/2000/svg"><path style="fill:none;stroke-width:2;stroke-linecap:round;stroke-linejoin:round;stroke:#000;stroke-opacity:1;stroke-miterlimit:4" d="M6 12h12m0 0-5-5m5 5-5 5" transform="scale(2.5)"/></svg><svg viewBox="0 0 50 50" id="up" xmlns="http://www.w3.org/2000/svg"><path style="stroke:none;fill-rule:evenodd;fill:#000;fill-opacity:1" d="M35.21 25.844c-.608.61-1.597.61-2.21 0l-6.438-6.453v16.547c0 .859-.699 1.562-1.562 1.562a1.565 1.565 0 0 1-1.563-1.563V19.392L17 25.844c-.613.61-1.602.61-2.21 0a1.575 1.575 0 0 1 0-2.219l8.835-8.844c.375-.375.89-.484 1.375-.39.484-.094 1 .015 1.375.39l8.836 8.844c.61.61.61 1.594 0 2.219ZM25 0C11.191 0 0 11.188 0 25c0 13.813 11.191 25 25 25s25-11.188 25-25C50 11.187 38.809 0 25 0Zm0 0"/></svg><svg viewBox="0 0 60 60" id="vg" xmlns="http://www.w3.org/2000/svg"><path style="fill:none;stroke-width:2;stroke-linecap:round;stroke-linejoin:round;stroke:#000;stroke-opacity:1;stroke-miterlimit:4" d="M6 12h12M6 12l5-5m-5 5 5 5" transform="scale(2.5)"/></svg></svg>